<svg version="1.2" xmlns="http://www.w3.org/2000/svg" viewBox="0 0 800 400" width="800" height="400">
	<title>svgviewer-output(8)</title>
	<style>
		.s0 { fill: #000000 } 
	</style>
	<path class="s0" d="m453.6 383.5q3.2 2.5 6.8 4.5 3.6 1.9 7.5 3.2 3.8 1.2 7.9 1.7 4.1 0.6 8.1 0.4 2.5 0 5-0.3 2.5-0.2 4.9-0.7 2.5-0.5 4.9-1.2 2.4-0.7 4.7-1.7 2.9-1.4 5.7-3 2.8-1.6 5.4-3.5 2.6-1.9 5.1-4 2.4-2.1 4.6-4.4 3.6-3.8 6.8-7.7 3.3-3.9 6.4-8 3-4.1 5.8-8.4 2.8-4.3 5.3-8.7 4-7 7.8-14.2 3.7-7.1 7.3-14.4 3.5-7.2 6.8-14.6 3.2-7.3 6.3-14.8 12.1-28.3 35.2-88.6 6.4-16.7 13-33.5 6.5-16.7 13.1-33.4 6.6-16.7 13.3-33.3 6.7-16.7 13.5-33.3 1.4-3.3 3.2-6.5 1.9-3.1 4.2-5.9 2.3-2.8 5.1-5.3 2.7-2.4 5.7-4.4 2.3-1.5 4.6-2.9 2.4-1.4 4.9-2.6 2.5-1.1 5.1-2 2.6-0.9 5.2-1.6v-16.5h-91.4v17c7.6 1.1 14.9 3.6 21.7 7.3 7.6 4 11.3 8.2 11.3 12.9q-0.1 1.9-0.3 3.9-0.2 1.9-0.6 3.8-0.5 2-1 3.8-0.6 1.9-1.3 3.7-3.3 8.9-5 14-3.3 9-6.6 18-3.4 8.9-6.8 17.9-3.3 9-6.8 17.9-3.5 8.9-7 17.9-3 7.3-5.9 14.6-2.9 7.4-5.9 14.7-2.9 7.4-5.8 14.7-2.9 7.4-5.9 14.7-10.7-29.8-30.3-79.2-19.6-49.4-28.8-75.7-1-3.7-3.8-11.7c0-3.5 3.5-6.4 10.5-8.3q2.2-0.7 4.5-1.2 2.2-0.6 4.5-1 2.3-0.4 4.6-0.7 2.3-0.3 4.6-0.4v-18.6h-112.8v17.5c7.8 1.5 15.4 4.4 22.3 8.6q2.7 1.6 5.2 3.7 2.4 2 4.4 4.4 2.1 2.5 3.7 5.2 1.6 2.7 2.7 5.7 21.3 53.1 40.5 102.3 5.5 14.1 10.9 28.2 5.4 14.1 10.8 28.1 5.4 14.1 10.7 28.2 5.4 14.2 10.7 28.3-2.6 6.9-5.4 13.7-2.8 6.7-6 13.4-3.1 6.6-6.6 13.1-3.5 6.4-7.2 12.7-17.4 30.2-29.9 37.3c-1.7-2.9-3.9-6.4-6.8-11.3q-0.9-1.4-1.8-2.8-0.9-1.4-1.9-2.8-1-1.3-2.1-2.6-1.1-1.3-2.2-2.6-1.1-1.2-2.3-2.3-1.2-1.2-2.5-2.2-1.3-1-2.7-1.9-1.3-0.9-2.8-1.7-1.6-0.8-3.2-1.5-1.7-0.6-3.5-1-1.7-0.4-3.5-0.6-1.8-0.1-3.5-0.1-1.3 0-2.5 0.1-1.2 0.1-2.4 0.4-1.2 0.3-2.3 0.7-1.2 0.4-2.3 0.9c-3 1.5-5.6 3.6-7.7 6.3q-1.7 2.3-3.1 4.9-1.3 2.6-2.2 5.4-0.8 2.8-1.2 5.6-0.4 2.9-0.2 5.9c0.1 4.4 1.2 8.7 3.1 12.6 1.9 3.9 4.7 7.3 8 9.9zm210.6-46.8l4.9-12.9q0-0.1 0-0.3 0-0.1 0-0.3 0-0.2-0.1-0.3 0-0.2-0.1-0.3 0-0.2-0.1-0.3-0.1-0.1-0.2-0.2-0.1-0.1-0.3-0.2-0.1-0.1-0.3-0.2-0.1 0-0.2-0.1-0.2 0-0.4 0-0.1 0-0.3 0-0.1 0-0.3 0.1-0.1 0.1-0.2 0.1-0.2 0.1-0.3 0.2-0.1 0.1-0.2 0.2-0.1 0.1-0.2 0.3l-4.8 12.8-14.3-6.1 8.2-22.2q0.1-0.2 0.1-0.4 0.1-0.2 0.1-0.4 0-0.1-0.1-0.3 0-0.2-0.1-0.4 0-0.1-0.1-0.3-0.1-0.1-0.3-0.2-0.1-0.2-0.2-0.3-0.2-0.1-0.3-0.1-0.2-0.1-0.4-0.1-0.1 0-0.3 0-0.2 0-0.3 0-0.2 0.1-0.3 0.1-0.2 0.1-0.3 0.2-0.2 0.1-0.3 0.2-0.1 0.2-0.2 0.3-0.1 0.2-0.2 0.3l-8.9 24.2q-0.1 0.2-0.1 0.5-0.1 0.3 0 0.6 0 0.3 0.2 0.6 0.1 0.2 0.3 0.5 0.1 0 0.1 0.1 0.1 0.1 0.2 0.1 0.1 0.1 0.2 0.1 0 0.1 0.1 0.1l35.9 15.3q0.3 0.2 0.6 0.2 0.2 0 0.5 0 0.3-0.1 0.6-0.3 0.2-0.1 0.4-0.3 0.1-0.1 0.1-0.2 0.1-0.1 0.1-0.2 0.1-0.1 0.1-0.1 0.1-0.1 0.1-0.2l9.2-24.2q0-0.1 0-0.3 0-0.2 0-0.3-0.1-0.2-0.1-0.3-0.1-0.2-0.1-0.3-0.1-0.2-0.2-0.3-0.1-0.1-0.2-0.2-0.1-0.1-0.2-0.2-0.2-0.1-0.3-0.2-0.2 0-0.3-0.1-0.2 0-0.3 0-0.2 0-0.3 0-0.2 0-0.3 0.1-0.2 0-0.3 0.1-0.1 0.1-0.3 0.2-0.1 0.1-0.2 0.2-0.1 0.1-0.2 0.3l-8.5 22.3-15.5-6.5zm2.2-66.6q-0.1 0-0.2 0-0.2 0-0.3 0-0.2 0.1-0.3 0.1-0.1 0.1-0.3 0.1-0.1 0.1-0.2 0.2-0.1 0.1-0.2 0.2-0.1 0.2-0.2 0.3 0 0.1-0.1 0.3 0 0.1-0.1 0.2 0 0.2 0 0.4 0 0.1 0 0.3 0 0.1 0 0.3 0.2 0.6 0.7 1l28.1 25.7-37-2.5q-0.1 0-0.3 0-0.1 0-0.3 0-0.1 0-0.2 0.1-0.2 0-0.3 0.1-0.1 0.1-0.3 0.2-0.1 0.1-0.2 0.2-0.1 0.1-0.1 0.2-0.1 0.2-0.2 0.3-0.1 0.3-0.1 0.5 0 0.3 0 0.6 0 0.2 0.2 0.5 0.1 0.2 0.3 0.4 0 0.1 0.1 0.2 0.1 0 0.1 0.1 0.1 0 0.2 0.1 0.1 0 0.1 0h0.8l41.9 2.8q0.2 0 0.3 0 0.1 0 0.3 0 0.1-0.1 0.2-0.1 0.2-0.1 0.3-0.2 0.1-0.1 0.2-0.2 0.1-0.1 0.2-0.2 0.1-0.1 0.2-0.2 0.1-0.2 0.1-0.3 0.1-0.1 0.1-0.3 0-0.1 0-0.3 0-0.1 0-0.3 0-0.1 0-0.3-0.1-0.1-0.1-0.3-0.1-0.1-0.1-0.2-0.1-0.2-0.2-0.3-0.1-0.1-0.2-0.2l-28.3-25.8 37.3 2.3q0.1 0 0.3 0 0.1 0 0.2-0.1 0.2 0 0.3-0.1 0.1 0 0.2-0.1 0.2-0.1 0.3-0.2 0.1-0.1 0.2-0.2 0-0.1 0.1-0.3 0.1-0.1 0.1-0.2 0.1-0.2 0.2-0.3 0-0.2 0-0.3 0.1-0.2 0.1-0.3-0.1-0.2-0.1-0.3 0-0.2-0.1-0.3 0-0.2-0.1-0.3-0.1-0.1-0.2-0.2-0.1-0.1-0.3-0.2l-31.9-28.9-0.6-0.4q-0.2 0-0.4-0.1-0.1 0-0.3 0-0.2 0-0.4 0-0.1 0.1-0.3 0.1-0.1 0.1-0.3 0.2-0.1 0.1-0.2 0.3-0.2 0.1-0.3 0.2 0 0.2-0.1 0.4-0.1 0.1-0.1 0.3 0 0.1 0 0.3-0.1 0.1 0 0.3 0 0.1 0 0.3 0.2 0.6 0.7 0.9l28.3 25.7zm34.2-29.1l5-12.9q0-0.2 0.1-0.4 0-0.1 0-0.3 0-0.2 0-0.4-0.1-0.2-0.1-0.3-0.1-0.2-0.2-0.3-0.1-0.2-0.2-0.3-0.2-0.1-0.3-0.2-0.1-0.1-0.3-0.2-0.2-0.1-0.3-0.1-0.2 0-0.4 0-0.2 0-0.3 0-0.2 0-0.3 0.1-0.1 0.1-0.2 0.1-0.1 0-0.1 0.1-0.1 0-0.2 0.1 0 0.1-0.1 0.1-0.1 0.1-0.1 0.2-0.1 0-0.1 0.1 0 0.1-0.1 0.2 0 0.1-0.1 0.1l-4.9 12.9-14.2-6.1 8.5-22.2q0.1-0.3 0.1-0.5 0-0.3-0.1-0.6 0-0.2-0.1-0.5-0.2-0.2-0.3-0.4-0.1-0.1-0.2-0.1 0-0.1-0.1-0.1-0.1-0.1-0.2-0.1 0-0.1-0.1-0.1-0.2-0.1-0.5-0.1-0.3-0.1-0.5 0-0.3 0-0.5 0.2-0.2 0.1-0.4 0.3 0 0.1-0.1 0.2 0 0-0.1 0.1 0 0.1 0 0.2-0.1 0-0.1 0.1l-9.2 24.1q-0.1 0.3-0.2 0.6 0 0.3 0.1 0.6 0 0.3 0.1 0.5 0.2 0.3 0.4 0.5 0.2 0.3 0.6 0.5l35.9 15.3q0.2 0.1 0.3 0.1 0.2 0 0.4 0 0.2 0 0.4 0 0.2 0 0.3-0.1 0.4-0.2 0.7-0.5 0 0 0.1-0.1 0-0.1 0.1-0.2 0 0 0.1-0.1 0-0.1 0.1-0.2l9.1-24.2q0.1-0.3 0.2-0.5 0-0.3-0.1-0.6 0-0.2-0.1-0.5-0.2-0.2-0.4-0.4 0 0-0.1-0.1-0.1 0-0.1-0.1-0.1 0-0.2-0.1-0.1 0-0.1-0.1-0.2 0-0.4-0.1-0.1 0-0.3 0-0.2 0-0.3 0.1-0.2 0-0.3 0.1-0.2 0-0.3 0.1-0.2 0.1-0.3 0.2-0.1 0.2-0.2 0.3-0.1 0.2-0.2 0.3l-8.5 22.4-15.5-6.5zm29.5-29.9l-34.9-14.9q-0.2-0.1-0.4-0.1-0.1 0-0.3 0-0.2 0-0.4 0.1-0.2 0-0.3 0.1-0.2 0.1-0.3 0.2-0.2 0.1-0.3 0.2-0.1 0.2-0.2 0.3-0.1 0.2-0.2 0.4 0 0.2-0.1 0.3 0 0.2 0 0.4 0 0.2 0 0.4 0 0.2 0.1 0.4 0.1 0.1 0.1 0.3 0.1 0.2 0.3 0.3 0.1 0.2 0.2 0.3 0.2 0.1 0.3 0.2l36.4 15.5q0.2 0.1 0.4 0.1 0.2 0.1 0.4 0.1 0.2 0 0.4-0.1 0.1 0 0.3-0.1 0.2-0.1 0.3-0.2 0.2-0.1 0.3-0.2 0.2-0.2 0.3-0.3 0.1-0.2 0.1-0.4l9.3-24.3q0.1-0.3 0.1-0.6 0.1-0.2 0-0.5 0-0.3-0.2-0.5-0.1-0.2-0.3-0.4-0.2-0.2-0.4-0.3-0.2-0.2-0.5-0.2-0.2-0.1-0.5 0-0.2 0-0.4 0.1-0.2 0.1-0.3 0.2-0.2 0.1-0.3 0.2-0.1 0.2-0.2 0.3-0.1 0.1-0.1 0.3l-8.6 22.4zm13.7-36l-34.9-14.9q-0.2-0.2-0.5-0.2-0.3 0-0.6 0-0.3 0.1-0.5 0.3-0.3 0.1-0.5 0.3 0 0.1-0.1 0.2 0 0.1-0.1 0.2 0 0-0.1 0.1 0 0.1-0.1 0.2-0.1 0.3-0.1 0.6 0 0.3 0 0.6 0.1 0.2 0.2 0.5 0.1 0.3 0.3 0.5 0.1 0 0.2 0.1 0.1 0.1 0.1 0.1 0.1 0.1 0.2 0.1 0.1 0.1 0.2 0.1l36.4 15.6c0.5 0.2 1 0.2 1.5-0.1q0.1 0 0.3-0.2 0.1-0.1 0.3-0.2 0.1-0.2 0.2-0.3 0.1-0.2 0.2-0.4l9.3-24.3q0-0.1 0-0.3 0.1-0.2 0-0.4 0-0.1 0-0.3 0-0.2-0.1-0.4-0.1-0.1-0.1-0.3-0.1-0.1-0.3-0.2-0.1-0.2-0.2-0.3-0.2-0.1-0.3-0.2-0.2 0-0.3-0.1-0.2 0-0.4 0-0.2 0-0.3 0-0.2 0.1-0.3 0.2-0.2 0-0.3 0.1-0.2 0.1-0.3 0.3-0.1 0.1-0.2 0.3-0.1 0.1-0.2 0.3c0 0-8.5 22.4-8.6 22.4zm-1.8-42.7l4.9-12.9q0.1-0.2 0.1-0.3 0.1-0.2 0.1-0.4 0-0.2-0.1-0.4 0-0.1-0.1-0.3-0.1-0.2-0.1-0.3-0.1-0.2-0.3-0.3-0.1-0.1-0.2-0.2-0.2-0.1-0.4-0.2-0.2-0.1-0.4-0.1-0.3 0-0.5 0-0.3 0.1-0.5 0.2-0.2 0.2-0.4 0.4 0 0-0.1 0.1 0 0.1-0.1 0.1 0 0.1-0.1 0.2 0 0.1 0 0.2l-5 12.8-14.2-6.1 8.4-22.2q0.1-0.2 0.2-0.5 0-0.3-0.1-0.6 0-0.2-0.1-0.5-0.2-0.2-0.3-0.4-0.2-0.1-0.3-0.2-0.1-0.1-0.3-0.2-0.1-0.1-0.3-0.1-0.2 0-0.4 0-0.1 0-0.3 0-0.2 0-0.3 0.1-0.2 0.1-0.3 0.2-0.2 0.1-0.3 0.2 0 0.1-0.1 0.2 0 0-0.1 0.1 0 0.1-0.1 0.2 0 0.1 0 0.1l-9.3 24.1q-0.1 0.3-0.1 0.6 0 0.3 0 0.6 0.1 0.3 0.2 0.6 0.2 0.2 0.4 0.5 0.3 0.2 0.6 0.4l35.8 15.3q0.3 0.1 0.6 0.2 0.3 0 0.6-0.1 0.2 0 0.5-0.2 0.2-0.1 0.4-0.3 0.1-0.1 0.2-0.2 0 0 0.1-0.1 0-0.1 0.1-0.2 0-0.1 0-0.2l9.3-24.1q0-0.2 0.1-0.4 0-0.2 0-0.3 0-0.2 0-0.4-0.1-0.2-0.1-0.4-0.1-0.1-0.2-0.3-0.1-0.1-0.2-0.2-0.2-0.2-0.3-0.3-0.1-0.1-0.3-0.1-0.2-0.1-0.3-0.1-0.2-0.1-0.4-0.1-0.1 0-0.3 0.1-0.2 0-0.3 0.1-0.2 0-0.3 0.1-0.2 0.1-0.3 0.3-0.1 0.1-0.2 0.2-0.1 0.2-0.2 0.3l-8.5 22.4-15.5-6.5zm15.3-69.6q-1.2-0.5-2.4-0.8-1.2-0.2-2.5-0.2-1.3 0.1-2.5 0.4-1.2 0.3-2.4 0.9-0.5 0.4-1.1 0.7-0.5 0.4-1 0.8-0.5 0.4-0.9 0.9-0.5 0.5-0.8 1-0.4 0.5-0.8 1.1-0.3 0.5-0.6 1.1-0.3 0.6-0.5 1.3-0.2 0.6-0.3 1.2l-6.9 18q-0.1 0.3-0.1 0.6-0.1 0.3 0 0.6 0 0.3 0.2 0.5 0.1 0.3 0.3 0.5 0.3 0.3 0.6 0.5l36.5 15.5q0.2 0.1 0.5 0.2 0.3 0 0.6-0.1 0.3 0 0.5-0.2 0.3-0.1 0.4-0.3 0.1-0.1 0.2-0.2 0-0.1 0.1-0.1 0-0.1 0.1-0.2 0-0.1 0-0.2 0.2-0.3 0.2-0.6 0-0.3 0-0.6 0-0.3-0.2-0.6-0.1-0.2-0.3-0.4-0.1-0.1-0.2-0.2-0.1 0-0.1-0.1-0.1 0-0.2-0.1-0.1 0-0.2-0.1l-16.2-6.9 6.1-15.5 20.3-1.5q0.1 0 0.3-0.1 0.1 0 0.3 0 0.1-0.1 0.2-0.1 0.1-0.1 0.3-0.2 0.1-0.1 0.2-0.2 0.1-0.1 0.2-0.2 0-0.2 0.1-0.3 0.1-0.1 0.1-0.3 0.1-0.2 0.1-0.5 0.1-0.3 0-0.6-0.1-0.3-0.2-0.5-0.1-0.3-0.3-0.5-0.1 0-0.2-0.1 0-0.1-0.1-0.1-0.1-0.1-0.2-0.1 0 0-0.1-0.1-0.1 0-0.3 0-0.1 0-0.2 0-0.1 0-0.2 0-0.1 0-0.2 0l-18.9 1.4q0.3-1 0.4-2.1 0-1.1-0.1-2.2-0.1-1.1-0.4-2.1-0.3-1.1-0.8-2-0.5-1-1.1-1.8-0.6-0.9-1.4-1.6-0.8-0.7-1.7-1.3-0.9-0.5-1.9-0.9zm-1.5 3.8q0.4 0.1 0.8 0.3 0.4 0.2 0.8 0.4 0.3 0.3 0.7 0.5 0.3 0.3 0.6 0.6 0.3 0.3 0.6 0.6 0.3 0.4 0.5 0.7 0.3 0.4 0.5 0.8 0.2 0.4 0.3 0.8 0.3 0.8 0.5 1.7 0.1 0.9 0.1 1.8 0 0.8-0.2 1.7-0.2 0.9-0.6 1.7l-6.4 16.9-15.5-6.5 6.4-16.9q0.2-0.4 0.3-0.8 0.2-0.4 0.4-0.8 0.2-0.3 0.5-0.7 0.2-0.4 0.5-0.7 0.3-0.3 0.6-0.6 0.3-0.3 0.7-0.6 0.3-0.2 0.7-0.4 0.3-0.3 0.7-0.4 0.8-0.4 1.6-0.6 0.9-0.1 1.7-0.1 0.8 0 1.7 0.2 0.8 0.2 1.5 0.6zm7.2-45.8q-0.1-0.2-0.3-0.3-0.1-0.2-0.3-0.3-0.2-0.1-0.4-0.2-0.3-0.1-0.5-0.1-0.2 0-0.3 0-0.2 0-0.4 0.1-0.1 0.1-0.3 0.2-0.1 0.1-0.2 0.2-0.1 0.1-0.1 0.2-0.1 0-0.1 0.1-0.1 0.1-0.1 0.2-0.1 0-0.1 0.1-0.1 0.3-0.2 0.5 0 0.3 0 0.5 0 0.3 0 0.5 0.1 0.3 0.2 0.5l13.3 21.6-23.7 5.7q-0.1 0.1-0.2 0.1-0.1 0.1-0.2 0.1-0.1 0.1-0.3 0.1-0.1 0.1-0.2 0.2 0 0.1-0.1 0.2-0.1 0.1-0.2 0.2-0.1 0.1-0.1 0.2-0.1 0.1-0.1 0.2-0.1 0.3-0.2 0.5 0 0.3 0 0.6 0.1 0.3 0.2 0.5 0.2 0.3 0.4 0.4 0 0.1 0.1 0.2 0.1 0 0.1 0.1 0.1 0 0.2 0 0.1 0.1 0.1 0.1 0.6 0.2 1.2 0l25.6-6.4 16 6.8q0.2 0.1 0.5 0.1 0.3 0.1 0.6 0 0.3-0.1 0.5-0.2 0.2-0.2 0.4-0.4 0.2-0.1 0.3-0.3 0.1-0.1 0.1-0.3 0.1-0.2 0.1-0.4 0.1-0.2 0.1-0.4 0-0.2-0.1-0.4 0-0.2-0.1-0.4-0.1-0.1-0.2-0.3-0.1-0.2-0.2-0.3-0.1-0.1-0.2-0.1 0-0.1-0.1-0.1-0.1-0.1-0.2-0.1 0-0.1-0.1-0.1l-15.8-6.5zm-331.1 237.2q-1.6-0.2-3.2-0.3-1.6-0.2-3.2-0.4-1.6-0.2-3.1-0.5-1.6-0.3-3.2-0.6-1.4-0.3-2.9-0.7-1.4-0.4-2.9-0.8-1.4-0.5-2.8-1-1.4-0.5-2.8-1.1-1.6-0.6-3.1-1.6-1.5-0.9-2.8-2.1-1.3-1.1-2.4-2.5-1.1-1.4-1.9-2.9-0.8-1.8-1.4-3.7-0.6-1.8-1-3.8-0.4-1.9-0.5-3.8-0.2-2-0.1-3.9v-133q0-45.1-18.2-66.8-2.3-2.7-4.9-5.1-2.6-2.4-5.4-4.6-2.9-2.1-5.9-3.9-3.1-1.8-6.3-3.2-3.2-1.4-6.5-2.4-3.3-1-6.7-1.7-3.4-0.6-6.9-0.8-3.5-0.3-7-0.1-3.6 0-7.2 0.2-3.7 0.3-7.2 0.8-3.6 0.5-7.2 1.3-3.5 0.9-7 2-3 0.9-5.9 2.1-2.9 1.2-5.7 2.6-2.8 1.4-5.5 3-2.7 1.6-5.2 3.4-9.8 6.7-18.3 15c-4.5 4.7-9.8 10.1-15.8 16.3q-1.9-4.8-4.5-9.4-2.5-4.6-5.7-8.8-3.1-4.2-6.8-7.9-3.7-3.7-7.8-6.9-4.4-3.4-9.3-6.1-4.9-2.6-10.1-4.3-5.3-1.8-10.8-2.6-5.5-0.8-11-0.7-3.7 0-7.2 0.2-3.6 0.3-7.2 0.8-3.6 0.6-7.1 1.4-3.5 0.8-6.9 1.9c-7.8 2.3-15.2 5.9-22 10.6q-8.9 6.5-16.7 14.6-2 1.9-3.9 3.8-1.9 2-3.8 3.9-1.9 2-3.8 3.9-1.9 2-3.8 4h-1.8v-37.4l-3.5-3.7-82.6 5.8v17.5c4.9 0.4 9.8 1.2 14.5 2.5 4.1 1.2 8.1 2.9 11.8 5.2q1.6 1.1 3 2.4 1.4 1.3 2.7 2.8 1.3 1.4 2.4 3 1.1 1.6 2 3.3c2.5 4.7 3.7 10 3.7 15.3v162.4c0.1 5.4-1.2 10.8-3.7 15.5q-0.8 1.5-1.9 2.8-1.1 1.3-2.4 2.3-1.3 1.1-2.7 1.9-1.5 0.8-3.1 1.3-5.2 1.8-10.6 2.2l-11.9 1.1v17.5h119.9v-17.5q-1.5-0.1-3.1-0.3-1.5-0.2-3-0.4-1.5-0.3-3-0.6-1.5-0.2-3-0.6-1.4-0.3-2.8-0.8-1.4-0.4-2.7-0.9-1.4-0.5-2.7-1.1-1.3-0.5-2.6-1.2-1.6-0.7-3.1-1.7-1.5-0.9-2.9-2.1-1.3-1.2-2.4-2.5-1.2-1.4-2.1-3-0.9-1.7-1.6-3.5-0.7-1.9-1.2-3.8-0.4-1.9-0.6-3.9-0.2-1.9-0.1-3.9v-150.1l7.5-11q1.3-1.9 2.7-3.6 1.4-1.7 2.9-3.3 1.5-1.6 3.2-3.1 1.6-1.5 3.4-2.9 2.2-1.8 4.6-3.4 2.3-1.6 4.8-3 2.5-1.5 5.1-2.7 2.6-1.2 5.3-2.2 2.7-1 5.6-1.8 2.8-0.8 5.7-1.3 2.9-0.5 5.9-0.8 2.9-0.2 5.9-0.2 2.1 0 4.3 0.2 2.1 0.2 4.2 0.7 2.1 0.5 4.1 1.2 2 0.8 3.9 1.7 1.9 1 3.8 2.2 1.8 1.2 3.5 2.6 1.6 1.5 3.1 3 1.5 1.6 2.8 3.4 12.2 14.9 12.2 42.6v135.3q0.1 2-0.1 4-0.2 2-0.6 3.9-0.4 2-1.1 3.9-0.7 1.9-1.6 3.7-0.9 1.4-2.1 2.7-1.1 1.3-2.5 2.3-1.4 1-2.9 1.8-1.5 0.8-3.2 1.2-1.2 0.5-2.4 0.8-1.2 0.4-2.4 0.6-1.3 0.3-2.5 0.5-1.3 0.2-2.5 0.3l-11.2 1.1v17.5h117.7v-17.5q-1.6-0.1-3.1-0.3-1.5-0.1-3-0.4-1.5-0.2-3.1-0.5-1.5-0.2-3-0.6-1.3-0.3-2.6-0.7-1.3-0.4-2.6-0.9-1.3-0.4-2.6-0.9-1.3-0.5-2.5-1.1-1.7-0.6-3.2-1.5-1.5-1-2.8-2.1-1.3-1.2-2.4-2.6-1.1-1.4-1.9-2.9-0.8-1.8-1.4-3.7-0.6-1.8-1-3.8-0.3-1.9-0.5-3.8-0.2-2-0.1-3.9v-150.7q3.4-6 7.4-11.6 1.3-1.8 2.7-3.5 1.4-1.6 2.9-3.2 1.5-1.6 3.2-3 1.6-1.5 3.3-2.9 2.2-1.8 4.6-3.4 2.4-1.5 4.9-2.9 2.4-1.4 5-2.6 2.6-1.2 5.3-2.2 2.8-1 5.6-1.8 2.8-0.7 5.8-1.2 2.9-0.5 5.8-0.8 2.9-0.2 5.9-0.2 2.1 0 4.2 0.2 2.1 0.2 4.2 0.7 2.1 0.5 4.1 1.2 2 0.8 3.9 1.7c5.2 2.6 9.7 6.4 13.2 11.2q12.1 14.9 12.1 42.6v135.3c0.2 5.4-0.9 10.7-3.3 15.5-2.4 4-6.1 7-10.5 8.3q-5 1.8-10.3 2.1l-11.9 0.9v17.5h120.2zm237 115.9q-0.4 1-0.8 1.9-0.5 0.9-1.2 1.7-0.6 0.8-1.4 1.5-0.8 0.7-1.7 1.2-0.9 0.5-1.8 0.8-1 0.3-1.9 0.4-1 0.1-2 0-1-0.1-2-0.4-0.1 0-0.3-0.1-0.1 0-0.3 0-0.2 0-0.3 0.1-0.2 0-0.3 0.1-0.2 0.1-0.3 0.2-0.1 0.1-0.2 0.2-0.1 0.1-0.2 0.2-0.1 0.2-0.2 0.3-0.1 0.3-0.1 0.6-0.1 0.3 0 0.6 0 0.3 0.1 0.5 0.2 0.3 0.4 0.5 0 0.1 0.1 0.1 0.1 0.1 0.2 0.1 0.1 0.1 0.1 0.1 0.1 0.1 0.2 0.1h0.9c3.4 0.8 6.8 0.2 9.8-1.6 3-1.8 5.2-4.6 6.4-8 3.9-10.3-1.1-17.8-9.9-21.6l-23.3-9.9q-0.2-0.2-0.5-0.2-0.3 0-0.6 0-0.3 0.1-0.5 0.3-0.3 0.1-0.5 0.3 0 0.1-0.1 0.2 0 0.1-0.1 0.2 0 0-0.1 0.1 0 0.1-0.1 0.2-0.1 0.3-0.1 0.6-0.1 0.3 0 0.6 0 0.3 0.2 0.5 0.1 0.3 0.3 0.5 0.3 0.3 0.7 0.5l23.5 10.2c7.6 3.3 10.8 9 8 16.4z"/>
</svg>