<svg width="5687" height="725" viewBox="0 0 5687 725" fill="none" xmlns="http://www.w3.org/2000/svg">
<path d="M2962.69 273.145C2904.95 177.445 2911.35 31.141 3043.81 3.30903C3168.98 -23.0346 3201.42 114.19 3136.09 192.477C3114.65 218.176 3089.45 239.261 3060.48 255.732C3057.95 257.194 3056.11 259.599 3055.36 262.417C3054.61 265.235 3055 268.237 3056.46 270.764L3213.03 543.875C3213.66 544.922 3214.54 545.797 3215.6 546.415C3216.65 547.032 3217.84 547.372 3219.05 547.402C3220.26 547.432 3221.45 547.151 3222.51 546.585C3223.56 546.02 3224.45 545.189 3225.09 544.172C3264.28 481.265 3290.43 418.407 3303.52 355.599C3303.82 354.237 3303.8 352.826 3303.47 351.472C3303.13 350.118 3302.5 348.857 3301.61 347.783C3300.73 346.709 3299.61 345.85 3298.34 345.27C3297.07 344.691 3295.69 344.406 3294.3 344.437L3195.77 346.074C3194.56 346.102 3193.35 345.869 3192.24 345.392C3191.12 344.915 3190.11 344.205 3189.29 343.306C3188.46 342.408 3187.82 341.342 3187.43 340.177C3187.03 339.013 3186.88 337.777 3186.99 336.549L3187.73 329.702C3188.52 321.169 3193.19 316.903 3201.72 316.903L3446.4 317.051C3447.82 317.051 3449.22 317.334 3450.52 317.883C3451.82 318.433 3453 319.238 3453.98 320.251C3454.97 321.264 3455.74 322.464 3456.25 323.781C3456.77 325.098 3457.01 326.504 3456.97 327.916V332.084C3456.77 341.311 3452.06 345.925 3442.83 345.925L3341.63 344.883C3335.18 344.784 3331.36 347.91 3330.16 354.26C3315.98 428.28 3288.39 500.018 3247.41 569.474C3244.44 574.435 3244.44 579.446 3247.41 584.506C3288.19 655.203 3338.2 704.616 3430.93 678.57C3433.27 677.92 3435.75 678.031 3438.03 678.887C3440.3 679.743 3442.25 681.3 3443.58 683.332C3445.56 686.507 3446.75 689.98 3447.15 693.751C3447.84 701.292 3444.52 705.955 3437.18 707.741C3346.24 729.917 3251.88 728.727 3186.54 655.649C3182.37 651.085 3177.86 650.738 3173 654.607C3093.92 717.514 3003.67 736.02 2902.27 710.122C2785.73 680.504 2728.13 561.288 2781.12 451.151C2816.09 378.52 2888.57 326.577 2959.12 286.987C2965.07 283.713 2966.27 279.099 2962.69 273.145ZM3031.31 229.537C3034.38 235.986 3038.85 237.177 3044.7 233.109C3104.09 191.435 3160.35 129.223 3125.22 53.3173C3118.18 38.3347 3105.43 29.4542 3086.97 26.676C3030.56 18.0436 3000.35 65.9682 3002.73 115.976C3004.71 156.062 3014.24 193.916 3031.31 229.537ZM3157.96 628.71L2978.62 313.033C2978.34 312.53 2977.96 312.087 2977.51 311.731C2977.06 311.375 2976.54 311.114 2975.99 310.961C2975.43 310.809 2974.85 310.768 2974.28 310.843C2973.71 310.918 2973.16 311.106 2972.67 311.396L2961.65 317.647C2915.9 343.677 2881.62 385.518 2866.35 433.969C2851.08 482.421 2856.08 533.516 2880.24 576.023L2881.58 578.553C2893.53 599.619 2909.84 617.944 2929.56 632.479C2949.28 647.015 2972.04 657.477 2996.53 663.268C3021.02 669.059 3046.77 670.065 3072.3 666.23C3097.82 662.395 3122.64 653.792 3145.31 640.914L3156.33 634.663C3156.83 634.385 3157.27 634.009 3157.63 633.557C3157.98 633.105 3158.25 632.586 3158.4 632.031C3158.55 631.477 3158.59 630.897 3158.52 630.327C3158.44 629.757 3158.25 629.207 3157.96 628.71Z" fill="#010101"></path>
<path d="M794.774 679.607L794.476 42.4486C794.477 41.1319 793.964 39.8669 793.047 38.922C792.13 37.9772 790.881 37.427 789.565 37.3883L729.585 35.3046C728.848 35.2771 728.126 35.0889 727.47 34.7533C726.813 34.4176 726.238 33.9425 725.784 33.3612C725.33 32.7799 725.009 32.1066 724.843 31.3882C724.677 30.6698 724.67 29.9238 724.822 29.2024L727.948 15.3608C728.185 14.2313 728.802 13.2169 729.695 12.486C730.589 11.7551 731.705 11.3515 732.859 11.3423L867.852 11.7888C869.194 11.7888 870.481 12.3219 871.43 13.2709C872.379 14.2199 872.912 15.5071 872.912 16.8492L872.466 679.31C872.465 680.626 872.978 681.891 873.895 682.836C874.812 683.781 876.061 684.331 877.377 684.37L935.422 686.156C936.739 686.195 937.988 686.745 938.905 687.69C939.822 688.635 940.335 689.9 940.334 691.216V705.207C940.334 706.549 939.801 707.836 938.852 708.785C937.903 709.734 936.616 710.267 935.274 710.267L729.436 710.118C728.686 710.112 727.948 709.94 727.273 709.614C726.598 709.287 726.004 708.815 725.534 708.231C725.064 707.647 724.73 706.966 724.555 706.237C724.381 705.508 724.37 704.75 724.524 704.016L727.948 688.686C728.185 687.557 728.802 686.542 729.695 685.811C730.589 685.081 731.705 684.677 732.859 684.668H789.714C791.056 684.668 792.343 684.135 793.292 683.186C794.241 682.237 794.774 680.949 794.774 679.607Z" fill="#010101"></path>
<path d="M1057.47 75.3202C1057.02 107.621 1081.38 134.151 1111.87 134.577C1142.36 135.003 1167.45 109.163 1167.9 76.8621C1168.35 44.5611 1144 18.0308 1113.5 17.605C1083.01 17.1792 1057.93 43.0192 1057.47 75.3202Z" fill="#010101"></path>
<path d="M1853.43 132.947C1884.83 132.947 1910.29 107.492 1910.29 76.0919C1910.29 44.692 1884.83 19.2373 1853.43 19.2373C1822.03 19.2373 1796.58 44.692 1796.58 76.0919C1796.58 107.492 1822.03 132.947 1853.43 132.947Z" fill="#010101"></path>
<path d="M325.976 724.565C283.328 724.714 241.067 715.834 201.605 698.432C162.142 681.031 126.252 655.447 95.9824 623.144C65.713 590.84 41.6573 552.448 25.189 510.161C8.72072 467.874 0.162262 422.518 0.00228936 376.685C-0.157839 330.852 8.08364 285.438 24.2562 243.037C40.4287 200.635 64.2156 162.077 94.2587 129.562C124.302 97.048 160.013 71.2148 199.353 53.5376C238.692 35.8604 280.891 26.6854 323.538 26.5365C366.185 26.3875 408.447 35.2675 447.909 52.6695C487.372 70.0714 523.262 95.6546 553.531 127.958C583.801 160.262 607.857 198.654 624.325 240.941C640.793 283.228 649.352 328.584 649.512 374.417C649.672 420.25 641.43 465.664 625.258 508.065C609.085 550.467 585.298 589.025 555.255 621.54C525.212 654.054 489.501 679.887 450.161 697.564C410.822 715.242 368.623 724.417 325.976 724.565ZM327.287 53.474C116.984 51.5392 101.208 306.641 115.496 454.433C129.04 595.081 196.76 714 355.566 694.949C548.306 671.88 550.241 394.155 525.832 253.954C507.228 147.835 446.206 54.6647 327.287 53.474Z" fill="#010101"></path>
<path d="M4212.31 67.0084L4120.48 67.4549C4118.47 67.4578 4116.55 66.6997 4115.1 65.3398C4113.66 63.9799 4112.81 62.1241 4112.74 60.162L4112.29 52.5715C4111.89 44.6337 4115.61 40.6647 4123.45 40.6647H4341.64C4343.38 40.6551 4345.1 41.0313 4346.68 41.7661C4348.25 42.5009 4349.65 43.5761 4350.76 44.9142C4351.87 46.2523 4352.67 47.82 4353.1 49.5044C4353.53 51.1888 4353.58 52.948 4353.25 54.6551L4352.51 58.8225C4351.42 64.4782 4347.99 67.306 4342.24 67.306L4265.14 67.1572C4258 67.1572 4252.14 69.9354 4247.58 75.4919L4081.63 278.055C4080.14 279.898 4079.3 282.183 4079.25 284.553C4079.19 286.923 4079.93 289.244 4081.33 291.152L4357.27 674.252C4359.85 677.724 4363.27 679.858 4367.54 680.651C4385.4 683.727 4407.08 684.223 4432.58 682.14C4441.51 681.445 4446.32 685.563 4447.02 694.493L4447.46 698.958C4447.59 700.399 4447.41 701.851 4446.94 703.22C4446.47 704.589 4445.73 705.845 4444.75 706.909C4443.77 707.973 4442.58 708.822 4441.25 709.4C4439.92 709.979 4438.49 710.275 4437.05 710.269L4138.63 710.418C4130.99 710.418 4127.17 706.598 4127.17 698.958V693.153C4127.17 691.682 4127.47 690.225 4128.04 688.869C4128.61 687.513 4129.45 686.285 4130.5 685.258C4131.56 684.232 4132.81 683.427 4134.18 682.891C4135.55 682.355 4137.01 682.1 4138.48 682.14L4228.23 684.521C4229.28 684.549 4230.32 684.284 4231.23 683.756C4232.14 683.227 4232.88 682.456 4233.37 681.529C4233.87 680.602 4234.1 679.555 4234.03 678.506C4233.96 677.457 4233.6 676.448 4232.99 675.591L4013.02 371.225C4008.35 364.776 4002.4 363.238 3995.16 366.611L3963.46 381.495C3956.71 384.67 3953.33 389.978 3953.33 397.42L3953.78 670.233C3953.78 679.461 3958.44 684.075 3967.77 684.075L4037.72 683.628C4039.02 683.631 4040.3 683.917 4041.48 684.466C4042.65 685.014 4043.69 685.811 4044.53 686.803C4045.36 687.794 4045.97 688.956 4046.31 690.207C4046.66 691.458 4046.72 692.768 4046.5 694.046L4045.76 698.214C4045.14 701.591 4043.35 704.644 4040.72 706.845C4038.08 709.046 4034.76 710.257 4031.32 710.269L3775.18 710.121C3767.04 710.121 3762.98 706.003 3762.98 697.767V691.665C3762.98 686.307 3765.65 683.628 3771.01 683.628H3845.13C3851.98 683.628 3855.4 680.155 3855.4 673.21V78.1709C3855.4 70.9277 3851.78 67.2564 3844.54 67.1572L3770.86 67.0084C3766.4 67.0084 3764.02 64.7759 3763.72 60.3109L3763.27 52.2738C3763.19 50.797 3763.41 49.3193 3763.91 47.931C3764.41 46.5428 3765.19 45.2733 3766.19 44.2004C3767.2 43.1274 3768.41 42.2736 3769.75 41.6913C3771.09 41.1089 3772.53 40.8102 3773.99 40.8136H4037.57C4043.83 40.8136 4046.65 43.9391 4046.06 50.1901L4045.61 54.804C4045.28 58.2754 4043.67 61.4969 4041.11 63.8372C4038.55 66.1775 4035.22 67.4676 4031.77 67.4549L3964.5 67.0084C3957.45 67.0084 3953.93 70.5308 3953.93 77.5756V343.244C3953.93 348.9 3956.76 351.232 3962.41 350.24C3981.76 346.866 3997.19 338.134 4008.7 324.045C4083.71 232.76 4152.52 149.066 4215.13 72.9617C4215.58 72.4502 4215.87 71.8219 4215.96 71.15C4216.05 70.478 4215.94 69.7901 4215.64 69.1663C4215.35 68.5425 4214.87 68.0086 4214.28 67.6265C4213.69 67.2445 4213.01 67.0301 4212.31 67.0084Z" fill="#010101"></path>
<path d="M5106.05 330.749C5107.15 434.635 5107.54 534.701 5107.24 630.947C5107.15 656.051 5119.99 671.381 5145.79 676.937C5192.82 687.207 5216.34 631.096 5219.02 593.888C5219.61 585.751 5223.98 581.336 5232.12 580.641L5237.77 580.046C5239.12 579.948 5240.48 580.147 5241.74 580.63C5243 581.113 5244.14 581.868 5245.06 582.838C5245.99 583.808 5246.69 584.969 5247.1 586.238C5247.51 587.506 5247.63 588.848 5247.45 590.167C5237.47 668.454 5196.55 724.415 5109.03 713.997C5048.46 706.704 5025.68 661.161 5026.73 602.818C5028.31 510.243 5028.51 419.206 5027.32 329.707C5027.28 327.167 5026.25 324.745 5024.44 322.962C5022.62 321.18 5020.19 320.181 5017.65 320.182H4954.39C4953.19 320.173 4952 319.908 4950.91 319.404C4949.82 318.901 4948.85 318.171 4948.07 317.266C4947.29 316.361 4946.72 315.301 4946.4 314.16C4946.08 313.019 4946.01 311.824 4946.21 310.656L4947.1 305.149C4947.6 302.009 4949.21 299.152 4951.64 297.103C4954.08 295.053 4957.16 293.947 4960.35 293.987L5020.33 294.433C5023.16 294.477 5025.95 293.769 5028.41 292.382C5030.87 290.995 5032.91 288.98 5034.32 286.545L5093.25 185.338C5103.77 167.279 5108.78 168.718 5108.29 189.654L5105.76 286.694C5105.72 287.748 5105.89 288.8 5106.26 289.784C5106.63 290.768 5107.2 291.664 5107.92 292.417C5108.65 293.169 5109.52 293.763 5110.48 294.161C5111.43 294.559 5112.46 294.753 5113.5 294.731L5203.24 294.433C5210.78 294.433 5214.45 298.204 5214.26 305.745L5214.11 312.74C5214.01 317.602 5211.48 320.033 5206.52 320.033L5116.47 320.182C5109.53 320.182 5106.05 323.704 5106.05 330.749Z" fill="#010101"></path>
<path d="M2268.68 653.717C2234.9 693.902 2207.81 718.162 2149.17 716.376C2081.3 714.193 2046.57 681.4 2044.98 617.997C2043.2 548.044 2089.78 508.901 2155.12 500.566C2193.92 495.705 2229.98 483.947 2263.32 465.293C2268.58 462.415 2271.46 458 2271.96 452.047C2277.31 394.448 2270.02 317.501 2195.01 314.375C2171.99 313.383 2151.65 317.897 2133.99 327.919C2126.79 331.97 2121.45 338.657 2119.09 346.571C2116.73 354.485 2117.53 363.006 2121.34 370.337C2125.3 378.076 2129.32 385.815 2133.39 393.555C2148.27 421.536 2118.51 445.944 2092.46 444.456C2047.36 441.777 2041.41 394.894 2059.12 363.193C2082.74 321.321 2117.86 297.507 2164.5 291.752C2251.81 281.036 2308.62 306.933 2334.91 369.444C2347.22 398.913 2352.28 441.777 2350.09 498.036C2348.01 550.922 2348.26 600.781 2350.84 647.615C2353.37 691.967 2388.19 687.056 2419.6 685.716C2420.98 685.652 2422.37 685.881 2423.66 686.389C2424.95 686.897 2426.12 687.673 2427.1 688.667C2428.08 689.662 2428.85 690.853 2429.35 692.164C2429.85 693.475 2430.08 694.878 2430.02 696.283L2429.72 701.344C2429.32 708.885 2425.35 713.3 2417.81 714.59C2367.51 723.222 2301.42 715.334 2283.56 656.842C2280.39 646.721 2275.43 645.68 2268.68 653.717ZM2260.79 490.743C2233.11 506.073 2205.43 515.599 2174.32 521.999C2127.29 531.673 2121.34 581.532 2122.67 621.122C2123.27 641.363 2130.02 657.041 2142.92 668.154C2188.31 707.297 2241 665.921 2267.49 624.843C2270.17 620.775 2271.51 616.31 2271.51 611.448L2272.85 497.887C2272.95 488.56 2268.93 486.179 2260.79 490.743Z" fill="#010101"></path>
<path d="M4735.31 654.311C4717 673.064 4701.37 695.241 4676.07 704.915C4611.33 730.068 4520.09 717.417 4512.06 633.475C4504.61 555.684 4542.27 511.133 4625.02 499.822C4662.23 494.761 4696.71 483.103 4728.46 464.846C4733.52 461.968 4736.4 457.602 4737.09 451.748C4742.15 405.758 4736.8 328.96 4681.73 317.649C4652.95 311.695 4625.67 314.97 4599.87 327.472C4596.15 329.296 4592.83 331.842 4590.1 334.96C4587.37 338.078 4585.3 341.706 4583.99 345.63C4582.69 349.554 4582.19 353.695 4582.51 357.81C4582.83 361.925 4583.98 365.93 4585.88 369.592C4589.75 377.133 4593.57 384.773 4597.34 392.512C4609.69 418.112 4590.64 444.306 4563.25 445.051C4508.93 446.688 4507.59 385.963 4530.36 353.369C4557.15 314.87 4593.22 293.835 4638.56 290.263C4775.05 279.249 4820.14 359.769 4816.72 476.455C4814.93 535.194 4814.78 593.289 4816.27 650.739C4817.17 681.846 4850.21 692.711 4876.85 685.567C4885.38 683.284 4891.04 686.36 4893.82 694.794L4895.15 699.259C4895.62 700.662 4895.79 702.148 4895.65 703.624C4895.51 705.099 4895.07 706.532 4894.34 707.832C4893.61 709.133 4892.62 710.272 4891.43 711.179C4890.24 712.085 4888.87 712.74 4887.42 713.101C4837.11 725.454 4767.31 715.482 4748.7 657.437C4745.92 649.003 4741.46 647.961 4735.31 654.311ZM4729.35 491.04C4694.97 504.287 4661.19 516.193 4626.21 528.398C4581.56 543.876 4576.65 640.916 4609.24 668.153C4658.96 709.678 4740.37 650.888 4738.28 593.289C4736.99 559.752 4737.09 527.902 4738.58 497.738C4738.98 490.693 4735.9 488.461 4729.35 491.04Z" fill="#010101"></path>
<path d="M5414.74 497.446C5414.74 597.611 5450.31 706.558 5575.48 682.298C5625.63 672.624 5650.94 625.592 5661.2 579.454C5662.79 572.508 5667.11 569.234 5674.15 569.631L5679.51 569.779C5680.42 569.834 5681.31 570.073 5682.12 570.482C5682.93 570.891 5683.65 571.461 5684.24 572.157C5684.82 572.853 5685.26 573.661 5685.52 574.532C5685.78 575.403 5685.87 576.318 5685.76 577.221C5677.58 650.299 5628.61 708.344 5552.71 714.893C5272.75 738.855 5255.78 333.431 5492.87 292.353C5601.08 273.6 5685.91 343.403 5686.95 451.754C5687.25 477.254 5675.05 489.211 5650.34 487.623C5577.86 482.86 5499.42 487.474 5424.56 487.623C5418.01 487.623 5414.74 490.897 5414.74 497.446ZM5424.86 461.428L5607.92 460.833C5609.07 460.833 5610.16 460.378 5610.97 459.569C5611.78 458.759 5612.24 457.661 5612.24 456.517L5612.09 429.875C5612.04 414.664 5609.71 399.609 5605.23 385.571C5600.75 371.533 5594.21 358.787 5585.99 348.061C5577.76 337.336 5568.01 328.841 5557.3 323.061C5546.58 317.282 5535.11 314.332 5523.53 314.38H5508.05C5484.7 314.476 5462.34 326.759 5445.9 348.528C5429.46 370.298 5420.29 399.772 5420.39 430.471L5420.54 457.112C5420.54 458.257 5420.99 459.355 5421.8 460.164C5422.61 460.973 5423.71 461.428 5424.86 461.428Z" fill="#010101"></path>
<path d="M1076.67 679.172V325.989C1076.67 324.647 1076.13 323.36 1075.18 322.411C1074.24 321.462 1072.95 320.929 1071.61 320.929L1014.16 320.036C1013.47 320.037 1012.78 319.897 1012.15 319.624C1011.51 319.351 1010.94 318.952 1010.47 318.45C1009.99 317.948 1009.63 317.354 1009.39 316.706C1009.16 316.057 1009.06 315.367 1009.1 314.678L1009.99 299.348C1010.06 298.058 1010.63 296.846 1011.57 295.96C1012.51 295.075 1013.76 294.583 1015.05 294.585L1148.7 295.924C1149.37 295.924 1150.02 296.055 1150.64 296.31C1151.25 296.564 1151.81 296.937 1152.28 297.407C1152.75 297.877 1153.12 298.434 1153.38 299.048C1153.63 299.662 1153.76 300.32 1153.76 300.985L1153.91 679.619C1153.91 680.936 1154.42 682.201 1155.34 683.146C1156.26 684.09 1157.51 684.641 1158.82 684.679L1215.83 685.423C1216.53 685.439 1217.23 685.602 1217.86 685.902C1218.5 686.202 1219.07 686.632 1219.53 687.165C1220 687.697 1220.34 688.32 1220.55 688.995C1220.76 689.669 1220.82 690.379 1220.74 691.079L1219.25 705.516C1219.14 706.779 1218.56 707.955 1217.62 708.809C1216.68 709.663 1215.46 710.135 1214.19 710.13H1013.11C1012.44 710.13 1011.77 709.995 1011.14 709.731C1010.52 709.467 1009.95 709.081 1009.48 708.596C1009.01 708.11 1008.64 707.534 1008.4 706.903C1008.15 706.272 1008.03 705.598 1008.05 704.921L1008.2 690.782C1008.2 689.439 1008.74 688.152 1009.68 687.203C1010.63 686.254 1011.92 685.721 1013.26 685.721L1071.75 684.233C1073.07 684.194 1074.32 683.644 1075.24 682.699C1076.15 681.754 1076.67 680.489 1076.67 679.172Z" fill="#010101"></path>
<path d="M1516.62 592.091C1518.06 592.43 1519.57 592.225 1520.89 591.513C1522.2 590.802 1523.22 589.632 1523.76 588.221L1617.68 329.547C1618.03 328.55 1618.15 327.482 1618.03 326.433C1617.9 325.383 1617.53 324.382 1616.95 323.51C1616.37 322.639 1615.59 321.922 1614.68 321.419C1613.78 320.916 1612.76 320.641 1611.73 320.617L1564.99 318.98C1564.01 318.951 1563.06 318.698 1562.19 318.242C1561.33 317.786 1560.58 317.137 1560.01 316.347C1559.43 315.557 1559.05 314.646 1558.88 313.683C1558.71 312.72 1558.77 311.732 1559.04 310.794L1560.53 305.436C1562.51 298.193 1567.22 294.621 1574.67 294.72L1688.08 295.464C1689.2 295.464 1690.32 295.688 1691.36 296.124C1692.4 296.56 1693.34 297.198 1694.13 298.001C1694.92 298.805 1695.54 299.758 1695.96 300.804C1696.38 301.851 1696.58 302.97 1696.56 304.097V309.752C1696.54 311.192 1696.24 312.613 1695.67 313.934C1695.11 315.254 1694.29 316.448 1693.26 317.445C1692.24 318.442 1691.03 319.222 1689.7 319.741C1688.38 320.261 1686.97 320.508 1685.55 320.468L1656.38 320.022C1653.89 319.988 1651.46 320.716 1649.43 322.104C1647.4 323.493 1645.87 325.471 1645.06 327.761C1596.54 461.91 1549.61 590.106 1504.27 712.349C1502.18 718.004 1497.22 720.584 1489.38 720.088C1487.15 719.911 1485 719.108 1483.19 717.767C1481.37 716.426 1479.96 714.601 1479.11 712.497L1328.49 329.398C1326.21 323.643 1321.95 320.716 1315.69 320.617L1277.15 320.022C1275.11 320.027 1273.16 319.263 1271.66 317.882C1270.17 316.501 1269.26 314.607 1269.11 312.58L1268.51 307.073C1267.92 299.235 1271.49 295.315 1279.23 295.315L1465.87 295.167C1467.5 295.163 1469.11 295.494 1470.6 296.139C1472.1 296.783 1473.45 297.727 1474.56 298.913C1475.68 300.098 1476.54 301.5 1477.09 303.032C1477.64 304.564 1477.88 306.192 1477.77 307.817L1477.48 313.324C1477.18 317.889 1474.75 320.22 1470.18 320.319H1418.09C1416.84 320.308 1415.6 320.614 1414.49 321.211C1413.38 321.808 1412.44 322.676 1411.75 323.738C1411.05 324.8 1410.63 326.023 1410.52 327.296C1410.4 328.57 1410.6 329.855 1411.1 331.036C1447.21 414.978 1480.7 500.409 1511.56 587.328C1512.45 589.908 1514.14 591.495 1516.62 592.091Z" fill="#010101"></path>
<path d="M1816.37 679.465L1816.67 325.835C1816.67 324.493 1816.14 323.206 1815.19 322.257C1814.24 321.308 1812.95 320.775 1811.61 320.775L1754.9 319.882C1754.23 319.882 1753.56 319.746 1752.93 319.483C1752.31 319.219 1751.74 318.833 1751.27 318.347C1750.8 317.862 1750.43 317.286 1750.18 316.655C1749.94 316.024 1749.82 315.349 1749.84 314.673L1750.44 299.64C1750.48 298.324 1751.03 297.075 1751.97 296.158C1752.92 295.241 1754.18 294.728 1755.5 294.729L1890.19 296.068C1891.54 296.068 1892.82 296.601 1893.77 297.55C1894.72 298.499 1895.25 299.787 1895.25 301.129L1895.4 679.018C1895.4 680.335 1895.91 681.6 1896.83 682.545C1897.75 683.49 1899 684.04 1900.31 684.079L1956.28 685.418C1957 685.432 1957.7 685.598 1958.35 685.907C1959 686.216 1959.58 686.66 1960.05 687.209C1960.51 687.758 1960.85 688.401 1961.05 689.093C1961.25 689.785 1961.29 690.511 1961.19 691.223L1958.96 705.957C1958.78 707.142 1958.19 708.225 1957.29 709.015C1956.39 709.806 1955.24 710.251 1954.04 710.274L1755.2 710.422C1753.86 710.422 1752.57 709.889 1751.62 708.94C1750.67 707.991 1750.14 706.704 1750.14 705.362L1750.29 689.437C1750.29 688.772 1750.42 688.114 1750.67 687.5C1750.93 686.886 1751.3 686.329 1751.77 685.859C1752.24 685.389 1752.8 685.016 1753.41 684.762C1754.03 684.507 1754.69 684.377 1755.35 684.377L1811.31 684.525C1812.65 684.525 1813.94 683.992 1814.89 683.043C1815.84 682.094 1816.37 680.807 1816.37 679.465Z" fill="#010101"></path>
</svg>
